<svg width="16" height="16" viewBox="0 0 16 16" fill="none" xmlns="http://www.w3.org/2000/svg">
<path d="M3.33337 6.61523C3.33337 9.84978 6.16302 12.5246 7.4155 13.5501C7.59475 13.6969 7.68545 13.7712 7.81918 13.8088C7.92331 13.8381 8.07657 13.8381 8.1807 13.8088C8.31469 13.7711 8.40475 13.6976 8.58468 13.5502C9.83715 12.5247 12.6667 9.85008 12.6667 6.61553C12.6667 5.39145 12.175 4.21737 11.2998 3.35181C10.4247 2.48626 9.23777 2 8.00009 2C6.76242 2 5.57538 2.48634 4.70021 3.35189C3.82504 4.21744 3.33337 5.39116 3.33337 6.61523Z" stroke="white" stroke-width="1.5" stroke-linecap="round" stroke-linejoin="round"/>
<path d="M6.66671 6C6.66671 6.73638 7.26366 7.33333 8.00004 7.33333C8.73642 7.33333 9.33337 6.73638 9.33337 6C9.33337 5.26362 8.73642 4.66667 8.00004 4.66667C7.26366 4.66667 6.66671 5.26362 6.66671 6Z" stroke="white" stroke-width="1.5" stroke-linecap="round" stroke-linejoin="round"/>
</svg>
