<svg width="20" height="20" viewBox="0 0 20 20" fill="none" xmlns="http://www.w3.org/2000/svg">
<path d="M10.2441 5.24414C10.5446 4.94389 11.0169 4.92066 11.3438 5.1748L11.4219 5.24414L15.5889 9.41113C15.8891 9.71154 15.9123 10.1839 15.6582 10.5107L15.5889 10.5889L11.4219 14.7559C11.0965 15.0811 10.5695 15.0811 10.2441 14.7559C9.94375 14.4555 9.92064 13.9832 10.1748 13.6562L10.2441 13.5771L12.9873 10.833H4.16602C3.70593 10.8328 3.33301 10.4601 3.33301 10C3.33301 9.53987 3.70593 9.16717 4.16602 9.16699H12.9873L10.2441 6.42285C9.94374 6.12245 9.92062 5.64917 10.1748 5.32227L10.2441 5.24414Z" fill="#4A4C53"/>
</svg>
