<svg width="20" height="20" viewBox="0 0 20 20" fill="none" xmlns="http://www.w3.org/2000/svg">
<path fill-rule="evenodd" clip-rule="evenodd" d="M7.82226 5.17475L7.74375 5.24408L3.57709 9.41074C3.27668 9.71115 3.25357 10.1838 3.50776 10.5107L3.57709 10.5893L7.74375 14.7559C8.06919 15.0814 8.59683 15.0814 8.92226 14.7559C9.22267 14.4555 9.24577 13.9828 8.99159 13.6559L8.92226 13.5774L6.17801 10.8325L14.9997 10.8333C15.4599 10.8333 15.833 10.4602 15.833 10C15.833 9.53976 15.4599 9.16667 14.9997 9.16667L6.17967 9.16583L8.92226 6.42259C9.22267 6.12219 9.24577 5.64949 8.99159 5.32258L8.92226 5.24408C8.62186 4.94367 8.14917 4.92057 7.82226 5.17475Z" fill="#4A4C53"/>
</svg>
