<?xml version="1.0" encoding="utf-8"?>
<!-- Generator: Adobe Illustrator 24.0.0, SVG Export Plug-In . SVG Version: 6.00 Build 0)  -->
<svg version="1.1" id="Слой_1" xmlns="http://www.w3.org/2000/svg" xmlns:xlink="http://www.w3.org/1999/xlink" x="0px" y="0px"
	 viewBox="0 0 89.499 79.336" enable-background="new 0 0 89.499 79.336" xml:space="preserve">
<g display="none">
	<defs>
		<path id="SVGID_1_" d="M73.612,48.306c0.658,0.728,1.66,1.284,2.829,1.755c1.226-1.561,2.521-3.518,3.44-5.692
			c-2.234-2.668-4.286-4.671-6.875-6.507c0.897-2.626,1.328-5.611,1.484-8.187c3.349-0.424,6.698-1.206,10.047-2.244
			c0.089-3.952-0.235-7.674-1.066-11.115c-3.509,0.028-6.9,0.545-10.205,1.493c-0.409-2.046-1.27-4.042-2.599-5.986
			c1.856-2.864,3.098-5.648,4.647-8.104c-1.989-1.544-4.055-2.617-6.504-3.598c-2.013,1.894-3.848,3.823-5.172,6.222
			c-1.721-0.384-3.548-0.477-5.474-0.299L58.024,0c-1.943,0.306-4.046,1.149-5.621,2.25c-0.452,0.95-0.881,2.827-1.253,6.087
			c-1.095,0.516-2.1,1.271-2.996,2.318l0.019,1.907c5.295-3.714,10.728-3.98,15.295-1.81c2.855,1.745,5.327,4.321,6.828,9.656
			c0.934,3.899,0.24,8.439-0.39,12.973C71.384,36.206,73.165,41.89,73.612,48.306"/>
	</defs>
	<clipPath id="SVGID_2_" display="inline">
		<use xlink:href="#SVGID_1_"  overflow="visible"/>
	</clipPath>
	<g display="inline" clip-path="url(#SVGID_2_)">
		<g>
			<defs>
				<rect id="SVGID_3_" x="48.154" y="0" width="36.472" height="50.062"/>
			</defs>
			<clipPath id="SVGID_4_">
				<use xlink:href="#SVGID_3_"  overflow="visible"/>
			</clipPath>
			<g clip-path="url(#SVGID_4_)">
				
					<image overflow="visible" width="153" height="210" xlink:href="9C4E0464.jpg"  transform="matrix(0.24 0 0 0.24 48.0093 -0.202)">
				</image>
			</g>
		</g>
	</g>
</g>
<radialGradient id="SVGID_5_" cx="66.3526" cy="25.0308" r="21.883" gradientTransform="matrix(1 0 0 1.3142 0 -7.8638)" gradientUnits="userSpaceOnUse">
	<stop  offset="0.1946" style="stop-color:#F3260E"/>
	<stop  offset="0.8756" style="stop-color:#951507"/>
</radialGradient>
<path fill-rule="evenodd" clip-rule="evenodd" fill="url(#SVGID_5_)" d="M73.612,48.306c0.658,0.728,1.66,1.284,2.829,1.755
	c1.226-1.561,2.521-3.518,3.44-5.692c-2.234-2.668-4.286-4.671-6.875-6.507c0.897-2.626,1.328-5.611,1.484-8.187
	c3.349-0.424,6.698-1.206,10.047-2.244c0.089-3.952-0.235-7.674-1.066-11.115c-3.509,0.028-6.9,0.545-10.205,1.493
	c-0.409-2.046-1.27-4.042-2.599-5.986c1.856-2.864,3.098-5.648,4.647-8.104c-1.989-1.544-4.055-2.617-6.504-3.598
	c-2.013,1.894-3.848,3.823-5.172,6.222c-1.721-0.384-3.548-0.477-5.474-0.299L58.024,0c-1.943,0.306-4.046,1.149-5.621,2.25
	c-0.452,0.95-0.881,2.827-1.253,6.087c-1.095,0.516-2.1,1.271-2.996,2.318l0.019,1.907c5.295-3.714,10.728-3.98,15.295-1.81
	c2.855,1.745,5.327,4.321,6.828,9.656c0.934,3.899,0.24,8.439-0.39,12.973C71.384,36.206,73.165,41.89,73.612,48.306"/>
<path fill-rule="evenodd" clip-rule="evenodd" d="M18.416,48.772c0.689,0.138,1.28-0.043,1.777-0.519
	c0.885-1.305,1.599-2.639,2.484-3.944c0.13-0.206,0.508-0.302,0.868-0.126c5.713,2.152,11.535,3.869,17.477,5.103
	c1.484,0.537,2.697,0.057,3.568-1.703c0.61-3.338,0.876-6.881,1.104-10.678c0.046-0.767-1.063-1.029-1.863-1.189
	c-7.381-0.527-14.761,0.05-22.142,2.126c0.109,3.106-0.355,5.895-1.624,8.235C13.377,45.034,6.689,43.989,0,42.945L18.416,48.772z"
	/>
<path fill-rule="evenodd" clip-rule="evenodd" d="M59.326,51.278c2.204,0,4.321-0.086,6.525-0.086
	c-0.07-7.95,2.216-9.606,5.364-8.362c0.274-3.412-1.149-6.127-3.479-8.467c-0.595,1.361-1.734,2.541-3.248,3.596
	c-1.354,0.343-2.741,0.533-4.325,0.11c-2.14-2.183-4.486-4.534-7.521-5.839c-0.974-0.419-4.663-0.146-6.944,0.625l-0.195,2.279
	c0.865,0.58,1.038,1.067,1.003,2.28c1.916-1.833,4.757-3.241,7.086-2.415c2.628,0.933,4.427,3.485,5.443,6.139
	C59.79,44.498,59.836,47.879,59.326,51.278"/>
<path fill-rule="evenodd" clip-rule="evenodd" d="M26.842,35.456l4.913-26.123c4.07-1.026,8.025-2.023,12.094-3.05
	c1.615-0.438,3.969-0.088,3.843,0.893l-0.223,1.749l-3.252,25.452l-5.392,0.12L42.4,9.588l-8.129,1.423l-3.355,24.086L26.842,35.456
	z"/>
<polygon fill-rule="evenodd" clip-rule="evenodd" points="34.361,34.737 31.785,34.557 36.757,17.661 40.232,17.062 39.993,18.859 
	38.375,19.039 "/>
<polygon fill-rule="evenodd" clip-rule="evenodd" points="56.17,16.642 52.575,30.962 55.211,32.58 58.806,16.882 63,20.058 
	65.397,35.815 67.374,33.479 65.217,18.979 59.046,14.066 47.602,15.924 47.422,17.781 "/>
<path fill-rule="evenodd" clip-rule="evenodd" d="M29.307,47.154c2.44,0.863,1.87,0.478,4.239,1.257
	c1.068,0.351,1.592,0.052,1.469,1.106c-0.638,5.447-6.051,5.97-9.355,4.406c-3.304-1.564-3.758-5.63-2.79-8.364
	c0.253-0.716,0.932-0.392,1.447-0.223C26.083,45.914,26.465,46.149,29.307,47.154"/>
<path fill-rule="evenodd" clip-rule="evenodd" d="M69.575,43.785c-1.215-0.003-2.282,1.46-2.3,3.517
	c-0.008,0.964-0.111,3.84-0.112,4.962c-0.001,0.78-2.695,0.438-3.186,0.396c-0.26,1.296,0.573,3.79,3.473,3.772
	c1.259-0.008,2.042,0.032,2.742,0.032c1.303,0,2.306-2.468,2.273-6.23C72.433,46.473,71.079,43.788,69.575,43.785"/>
<path fill-rule="evenodd" clip-rule="evenodd" d="M52.402,36.212c-2.661-0.005-5,2.315-5.038,5.575
	c-0.018,1.528-0.243,6.085-0.246,7.865c-0.002,1.237-1.564,1.878-2.638,1.811c-0.569,2.053,1.51,4.81,3.268,4.796
	c2.777-0.022,4.473,0.136,6.008,0.136c2.854,0,5.05-3.998,4.979-9.96C58.662,40.473,55.697,36.217,52.402,36.212"/>
<path fill="#FF0001" d="M85.262,69.198c0.298,0,0.571-0.05,0.819-0.151c0.247-0.101,0.473-0.253,0.676-0.456
	c0.203-0.201,0.357-0.426,0.458-0.671c0.1-0.243,0.151-0.512,0.151-0.806c0-0.291-0.051-0.559-0.152-0.802
	c-0.102-0.244-0.256-0.469-0.461-0.674c-0.207-0.203-0.434-0.356-0.681-0.456c-0.244-0.101-0.514-0.151-0.81-0.151
	c-0.297,0-0.57,0.05-0.818,0.151c-0.248,0.1-0.474,0.251-0.676,0.452c-0.204,0.202-0.357,0.425-0.458,0.669
	c-0.101,0.244-0.152,0.515-0.152,0.812c0,0.294,0.051,0.563,0.151,0.807c0.101,0.244,0.254,0.468,0.458,0.67
	c0.204,0.203,0.43,0.355,0.675,0.455C84.691,69.148,84.965,69.198,85.262,69.198 M85.262,79.234c-0.583,0-1.127-0.104-1.63-0.311
	c-0.502-0.207-0.96-0.516-1.37-0.927c-0.411-0.411-0.721-0.868-0.928-1.37c-0.207-0.501-0.31-1.044-0.31-1.626v-1.579
	c0-1.279,0.469-2.332,1.405-3.158c-0.423-0.372-0.751-0.793-0.984-1.262c-0.281-0.566-0.421-1.199-0.421-1.897
	c0-0.581,0.103-1.122,0.31-1.623c0.207-0.499,0.516-0.957,0.928-1.368c0.41-0.411,0.868-0.721,1.37-0.928
	c0.503-0.207,1.047-0.311,1.63-0.311c0.583,0,1.127,0.104,1.629,0.311c0.502,0.207,0.96,0.517,1.371,0.927
	c0.411,0.411,0.721,0.868,0.927,1.369c0.207,0.501,0.31,1.042,0.31,1.623c0,0.698-0.141,1.331-0.421,1.897
	c-0.232,0.469-0.561,0.89-0.984,1.262c0.278,0.247,0.514,0.514,0.707,0.803c0.256,0.382,0.438,0.8,0.543,1.25
	c0.052,0.228,0.091,0.569,0.117,1.022c0.025,0.45,0.038,1.005,0.038,1.662c0,0.583-0.103,1.125-0.31,1.626
	c-0.206,0.501-0.516,0.957-0.927,1.369c-0.413,0.413-0.871,0.722-1.372,0.929C86.387,79.131,85.844,79.234,85.262,79.234z
	 M85.262,77.1c0.298,0,0.571-0.05,0.819-0.15c0.247-0.1,0.473-0.251,0.676-0.452c0.203-0.204,0.357-0.429,0.458-0.673
	c0.101-0.244,0.152-0.514,0.152-0.808v-1.58c0-0.289-0.051-0.557-0.152-0.8s-0.255-0.468-0.46-0.671
	c-0.208-0.205-0.436-0.359-0.682-0.46c-0.245-0.101-0.514-0.152-0.809-0.152c-0.297,0-0.57,0.051-0.819,0.152
	c-0.246,0.1-0.471,0.252-0.674,0.455c-0.205,0.202-0.359,0.426-0.46,0.67c-0.1,0.243-0.151,0.512-0.151,0.807v1.58
	c0,0.294,0.051,0.564,0.152,0.808c0.1,0.243,0.254,0.468,0.459,0.673c0.202,0.201,0.428,0.352,0.675,0.452
	C84.692,77.049,84.965,77.1,85.262,77.1z M74.21,71.349H72.63c-0.34,0-0.604-0.093-0.79-0.279c-0.187-0.187-0.281-0.449-0.281-0.788
	c0-0.339,0.093-0.602,0.281-0.788c0.186-0.186,0.45-0.279,0.79-0.279h1.579c0.295,0,0.565-0.05,0.809-0.149
	c0.244-0.101,0.469-0.253,0.673-0.456c0.201-0.203,0.352-0.427,0.452-0.673c0.1-0.246,0.15-0.517,0.15-0.813
	c0-0.292-0.051-0.561-0.152-0.805c-0.102-0.245-0.255-0.471-0.458-0.676c-0.206-0.205-0.431-0.358-0.673-0.459
	c-0.244-0.101-0.511-0.152-0.801-0.152h-3.155c-0.34,0-0.605-0.094-0.793-0.279c-0.188-0.186-0.282-0.449-0.282-0.788
	c0-0.339,0.095-0.602,0.282-0.788c0.188-0.186,0.453-0.279,0.793-0.279h3.155c0.584,0,1.125,0.105,1.625,0.312
	c0.498,0.207,0.953,0.518,1.363,0.931c0.408,0.415,0.715,0.871,0.92,1.369c0.206,0.5,0.309,1.039,0.309,1.617
	c0,1.279-0.471,2.332-1.414,3.155c0.424,0.371,0.753,0.791,0.988,1.259c0.284,0.567,0.426,1.198,0.426,1.892v1.579
	c0,0.581-0.103,1.122-0.31,1.622c-0.207,0.498-0.517,0.954-0.928,1.365c-0.822,0.824-1.816,1.235-2.98,1.235h-3.155
	c-0.34,0-0.605-0.094-0.793-0.279c-0.188-0.186-0.282-0.449-0.282-0.788c0-0.339,0.095-0.602,0.282-0.788
	c0.188-0.186,0.453-0.279,0.793-0.279h3.155c0.295,0,0.565-0.05,0.809-0.15c0.245-0.1,0.469-0.253,0.673-0.456
	c0.201-0.202,0.352-0.425,0.452-0.669c0.1-0.245,0.15-0.516,0.15-0.812v-1.579c0-0.289-0.051-0.556-0.152-0.799
	c-0.1-0.243-0.254-0.468-0.459-0.673c-0.205-0.205-0.43-0.359-0.672-0.459C74.766,71.4,74.499,71.349,74.21,71.349z M65.266,77.367
	c0-0.34,0.093-0.605,0.279-0.793c0.186-0.188,0.449-0.282,0.788-0.282c0.339,0,0.602,0.095,0.788,0.282
	c0.186,0.188,0.279,0.453,0.279,0.793v0.792c0,0.34-0.093,0.605-0.279,0.793c-0.186,0.188-0.449,0.282-0.788,0.282
	c-0.338,0-0.602-0.095-0.788-0.282c-0.186-0.188-0.279-0.453-0.279-0.793V77.367z M60.536,75.8v-6.042h-2.9
	c-0.185,0-0.354,0.031-0.505,0.093c-0.152,0.062-0.294,0.158-0.423,0.286c-0.128,0.126-0.223,0.265-0.285,0.416
	c-0.063,0.152-0.094,0.321-0.094,0.505V75.8c0,0.178,0.032,0.343,0.095,0.493c0.064,0.152,0.161,0.292,0.289,0.419
	c0.133,0.132,0.276,0.23,0.427,0.293c0.151,0.063,0.318,0.095,0.497,0.095h1.592c0.185,0,0.353-0.031,0.504-0.093
	c0.153-0.063,0.295-0.159,0.424-0.286c0.127-0.126,0.223-0.265,0.286-0.416C60.504,76.152,60.536,75.983,60.536,75.8z M62.67,66.336
	v9.46c0,0.478-0.084,0.923-0.252,1.332c-0.168,0.409-0.42,0.779-0.755,1.11c-0.335,0.331-0.708,0.58-1.115,0.746
	c-0.41,0.166-0.851,0.25-1.324,0.25H57.64c-0.479,0-0.925-0.084-1.336-0.253c-0.408-0.168-0.779-0.419-1.109-0.753
	c-0.332-0.331-0.583-0.701-0.75-1.109c-0.168-0.407-0.252-0.849-0.252-1.323v-4.734c0-0.478,0.085-0.922,0.254-1.331
	c0.169-0.409,0.422-0.78,0.758-1.111c0.335-0.33,0.707-0.58,1.115-0.746c0.408-0.166,0.851-0.25,1.328-0.25h2.887v-1.296
	c0-0.186-0.031-0.356-0.093-0.509c-0.061-0.152-0.155-0.291-0.281-0.417c-0.125-0.123-0.265-0.216-0.418-0.277
	c-0.154-0.061-0.327-0.092-0.516-0.092H56.84c-0.342,0-0.607-0.093-0.795-0.278c-0.189-0.187-0.284-0.45-0.284-0.789
	c0-0.339,0.094-0.601,0.282-0.788c0.189-0.186,0.453-0.279,0.793-0.279h2.379c0.481,0,0.927,0.084,1.337,0.251
	c0.412,0.167,0.784,0.418,1.117,0.751c0.332,0.335,0.582,0.706,0.749,1.113C62.586,65.42,62.67,65.861,62.67,66.336z M51.623,78.163
	c0,0.341-0.095,0.605-0.283,0.792c-0.188,0.187-0.453,0.279-0.793,0.279c-0.406,0-0.78-0.078-1.12-0.236
	c-0.257-0.119-0.493-0.282-0.707-0.49c-0.26,0.212-0.542,0.377-0.848,0.496c-0.392,0.153-0.818,0.229-1.276,0.229h-1.584
	c-0.479,0-0.924-0.084-1.332-0.25c-0.41-0.167-0.782-0.416-1.113-0.747c-0.332-0.331-0.582-0.701-0.75-1.109
	c-0.167-0.409-0.252-0.853-0.252-1.332v-4.734c0-0.963,0.334-1.777,1.002-2.44c0.33-0.331,0.702-0.581,1.112-0.748
	c0.408-0.166,0.853-0.25,1.332-0.25h3.955c0.34,0,0.605,0.093,0.792,0.28c0.188,0.186,0.283,0.451,0.283,0.792v7.889
	c0,0.185,0.038,0.315,0.113,0.391c0.075,0.076,0.206,0.113,0.391,0.113c0.341,0,0.607,0.094,0.794,0.282
	C51.528,77.556,51.623,77.821,51.623,78.163z M47.909,69.758h-2.9c-0.184,0-0.353,0.031-0.504,0.093
	c-0.155,0.064-0.297,0.159-0.425,0.286c-0.128,0.126-0.223,0.265-0.286,0.416c-0.063,0.152-0.094,0.321-0.094,0.505V75.8
	c0,0.178,0.032,0.343,0.095,0.493c0.064,0.152,0.16,0.292,0.289,0.419l0.002,0.002c0.129,0.129,0.271,0.226,0.424,0.29
	c0.152,0.063,0.318,0.095,0.497,0.095h1.592c0.184,0,0.353-0.031,0.504-0.093c0.154-0.063,0.296-0.159,0.425-0.286
	c0.127-0.126,0.223-0.265,0.285-0.416c0.063-0.153,0.094-0.321,0.094-0.505V69.758z M34.753,67.623h3.151
	c0.339,0,0.602,0.093,0.788,0.281c0.186,0.186,0.279,0.45,0.279,0.79v9.468c0,0.34-0.093,0.604-0.279,0.791
	c-0.186,0.187-0.449,0.281-0.788,0.281c-0.339,0-0.602-0.095-0.788-0.282c-0.186-0.188-0.279-0.453-0.279-0.793v-8.401h-1.317
	L32.605,78.5c-0.076,0.236-0.203,0.418-0.375,0.543c-0.174,0.127-0.385,0.19-0.631,0.19c-0.342,0-0.607-0.095-0.794-0.284
	c-0.187-0.189-0.281-0.455-0.281-0.799c0-0.057,0.005-0.113,0.012-0.168c0.01-0.06,0.023-0.114,0.04-0.164l3.122-9.357
	c0.089-0.266,0.22-0.47,0.392-0.612C34.273,67.7,34.495,67.623,34.753,67.623z M21.63,72.411l4.479-4.476
	c0.102-0.103,0.219-0.181,0.349-0.234c0.128-0.052,0.266-0.078,0.414-0.078c0.338,0,0.602,0.093,0.79,0.28
	c0.187,0.188,0.281,0.451,0.281,0.791c0,0.143-0.028,0.278-0.085,0.407c-0.055,0.124-0.135,0.24-0.24,0.344l-3.295,3.297
	l3.414,4.802c0.067,0.096,0.118,0.196,0.152,0.3c0.035,0.109,0.054,0.219,0.054,0.331c0,0.337-0.095,0.598-0.283,0.783
	c-0.187,0.184-0.451,0.276-0.789,0.276c-0.185,0-0.353-0.038-0.504-0.114c-0.152-0.077-0.282-0.191-0.389-0.341l-3.2-4.497
	l-1.15,1.15v2.731c0,0.34-0.093,0.604-0.279,0.791c-0.187,0.187-0.449,0.281-0.788,0.281c-0.339,0-0.602-0.094-0.788-0.281
	c-0.186-0.186-0.279-0.45-0.279-0.791v-9.468c0-0.34,0.093-0.604,0.279-0.79c0.186-0.187,0.449-0.281,0.788-0.281
	c0.339,0,0.602,0.093,0.788,0.281c0.186,0.186,0.279,0.45,0.279,0.79V72.411z M15.825,62.897c0.339,0,0.602,0.094,0.79,0.28
	c0.187,0.186,0.281,0.449,0.281,0.787c0,0.338-0.094,0.602-0.281,0.787c-0.187,0.186-0.451,0.28-0.79,0.28h-3.159
	c-0.404,0-0.756,0.085-1.052,0.255c-0.297,0.17-0.547,0.429-0.748,0.775c-0.095,0.16-0.166,0.328-0.213,0.504
	c-0.047,0.175-0.071,0.359-0.071,0.55v7.897c0,0.292,0.051,0.56,0.151,0.803c0.102,0.244,0.255,0.469,0.46,0.674
	c0.205,0.205,0.43,0.359,0.672,0.459c0.244,0.101,0.511,0.152,0.8,0.152h3.159c0.339,0,0.602,0.094,0.79,0.28
	c0.187,0.186,0.281,0.449,0.281,0.788c0,0.338-0.094,0.602-0.281,0.787c-0.187,0.186-0.451,0.279-0.79,0.279h-3.159
	c-0.581,0-1.122-0.104-1.623-0.31c-0.501-0.206-0.956-0.515-1.365-0.924c-0.408-0.413-0.716-0.87-0.921-1.37
	c-0.206-0.501-0.309-1.042-0.309-1.622v-7.885c0-0.58,0.104-1.121,0.309-1.622c0.206-0.501,0.513-0.958,0.92-1.369
	c0.41-0.41,0.866-0.719,1.366-0.925c0.5-0.206,1.042-0.31,1.623-0.31H15.825z"/>
</svg>
