<svg width="80" height="80" viewBox="0 0 80 80" fill="none" xmlns="http://www.w3.org/2000/svg">
<path d="M17.18 26H75V27.4979L74.72 31.8553L73.88 36.3489L72.9 39.8894L71.5 43.8383L70.66 45.6085L69.54 47.9234L68.42 49.966L67.72 51.0553L66.18 53.234L64.36 55.4128L62.68 57.183L61.56 58H6.12L5.42 57.5915L5 56.7745V55.1404L5.56 54.3234L6.68 53.234L7.94 51.7362L8.64 51.0553L10.32 48.7404L11.16 47.2426L12.84 44.1106L14.24 40.8426L14.94 38.9362L15.92 35.5319L16.62 32.1277L16.9 30.2213L17.18 26Z" fill="#BA0105"/>
<path d="M74.8596 46H75V69.75L74.4383 70.5833L73.7361 71H18.4044L17.5617 70.4444L17.1404 69.75L17 68.9167V62.8056L60.6755 62.6667L62.3608 62.3889L63.7651 61.6944L65.5908 60.1667L67.8378 57.8056L69.3826 55.8611L70.0847 54.6111L71.4891 52.5278L72.8935 50.1667L74.4383 46.9722L74.8596 46Z" fill="#BA0105"/>
<path d="M30.7627 9H32.5884L33.431 9.58427L33.7119 10.0225V13.236H43.8232V11.0449L44.1041 10.0225L44.8063 9.29213L45.2276 9H46.9128L47.7554 9.58427L48.1768 10.3146V13.236H58.4286V10.3146L58.9903 9.4382L59.6925 9H61.5182L62.3608 9.58427L62.7821 10.3146V13.236H73.8765L74.7191 13.9663L75 14.5506V22H17.1404L17 21.8539V15.573L17.2809 14.2584L17.9831 13.5281L18.4044 13.236H29.3584V11.0449L29.6392 10.0225L30.3414 9.29213L30.7627 9Z" fill="#BA0105"/>
</svg>
