<svg width="80" height="80" viewBox="0 0 80 80" fill="none" xmlns="http://www.w3.org/2000/svg">
<g clip-path="url(#clip0_4029_1067)">
<path d="M10.72 15.3599H30.4L31.68 15.6799L32.64 16.3199L33.76 17.9199L35.2 20.3199L36.8 22.8799L39.84 27.9999L41.92 31.5199L43.36 33.7599L46.08 38.2399L47.2 40.3199L48.16 41.7599L50.08 44.9599L50.24 45.5999V60.7999L49.76 62.2399L48.64 63.1999L47.84 63.5199H44.8L44.64 63.3599L44.16 60.4799L43.52 59.1999L42.24 57.4399L40.8 56.3199L39.36 55.5199L38.08 55.1999H35.36L33.44 55.8399L31.68 57.1199L30.4 58.5599L29.44 60.3199L29.12 61.5999L28.96 63.0399L28.64 63.5199H21.28L20.96 62.7199L20.64 60.6399L19.84 58.7199L18.88 57.5999V57.2799L18.24 56.9599L16.8 55.9999L15.2 55.3599L14.56 55.1999H12L10.08 55.8399L8.48 56.7999L8 57.2799H7.68L7.36 57.9199L6.56 59.0399L5.76 61.2799L5.44 63.3599L5.28 63.5199H1.44L0.48 62.8799L0 61.9199V38.8799L0.48 37.9199L1.12 37.4399L1.6 37.2799H7.52V18.0799L8.16 16.7999L8.96 15.9999L9.92 15.5199L10.72 15.3599ZM14.56 22.3999V44.3199H18.88L19.04 30.8799L19.2 30.3999L19.52 30.2399H23.68L24 30.5599L24.16 40.3199H30.4L30.56 41.1199L30.72 44.3199H41.12L39.84 41.7599L38.56 39.6799L35.84 35.1999L34.08 32.1599H33.76L33.6 31.3599L30.88 26.7199L29.76 25.1199L28.16 22.3999H14.56Z" fill="#BA0105"/>
<path d="M57.6001 12L59.0401 12.32L59.6801 12.96L60.0001 13.92V58.72H78.5601L79.6801 59.36L80.0001 60.16V61.92L79.3601 62.88L78.4001 63.36H57.1201L56.1601 62.88L55.5201 62.08L55.3601 61.76V13.76L55.8401 12.8L56.8001 12.16L57.6001 12Z" fill="#BA0105"/>
<path d="M63.6799 17.2798H79.5199L79.9999 17.7598V33.9198L79.5199 34.3998H63.6799L63.0399 33.9198L62.8799 33.2798V18.3998L63.1999 17.5998L63.6799 17.2798Z" fill="#BA0105"/>
<path d="M63.8399 38.3999H79.3599L79.9999 39.0399V55.0399L79.5199 55.5199H63.5199L63.0399 55.0399L62.8799 54.3999V39.5199L63.3599 38.5599L63.8399 38.3999Z" fill="#BA0105"/>
<path d="M12.1599 57.7598H14.3999L16.3199 58.5598L17.5999 59.8398L18.2399 61.1198L18.3999 61.5998V64.1598L17.4399 66.0798L15.8399 67.3598L14.5599 67.8398L13.1199 67.9998L11.5199 67.6798L10.2399 67.0398L8.95991 65.9198L8.31991 64.6398L8.15991 63.9998V61.5998L8.63991 60.3198L10.0799 58.7198L11.6799 57.9198L12.1599 57.7598Z" fill="#BA0105"/>
<path d="M35.5199 57.7598H37.9199L39.5199 58.3998L40.4799 59.1998L41.4399 60.4798L41.7599 61.4398L41.9199 63.1998L41.4399 65.1198L40.6399 66.3998L39.8399 66.8798L39.3599 67.3598L38.0799 67.8398L36.6399 67.9998L34.8799 67.6798L33.5999 66.8798L32.4799 65.9198L31.6799 63.9998V61.5998L32.3199 60.1598L33.7599 58.5598L35.0399 57.9198L35.5199 57.7598Z" fill="#BA0105"/>
</g>
<defs>
<clipPath id="clip0_4029_1067">
<rect width="80" height="80" fill="white"/>
</clipPath>
</defs>
</svg>
