<svg width="24" height="24" viewBox="0 0 24 24" fill="none" xmlns="http://www.w3.org/2000/svg">
<g clip-path="url(#clip0_2003_68)">
<mask id="path-1-outside-1_2003_68" maskUnits="userSpaceOnUse" x="-0.784912" y="0.305359" width="25" height="24" fill="black">
<rect fill="white" x="-0.784912" y="0.305359" width="25" height="24"/>
<path d="M1.30422 11.8674C1.3037 13.7288 1.79386 15.5462 2.72588 17.1482L1.21509 22.6216L6.86017 21.1529C8.42153 21.9963 10.1709 22.4382 11.9486 22.4383H11.9533C17.8219 22.4383 22.5991 17.6999 22.6016 11.8757C22.6027 9.05354 21.4961 6.39971 19.4854 4.40312C17.4751 2.4067 14.8015 1.30665 11.9529 1.30536C6.08357 1.30536 1.30673 6.04353 1.30431 11.8674"/>
</mask>
<path d="M1.30422 11.8674C1.3037 13.7288 1.79386 15.5462 2.72588 17.1482L1.21509 22.6216L6.86017 21.1529C8.42153 21.9963 10.1709 22.4382 11.9486 22.4383H11.9533C17.8219 22.4383 22.5991 17.6999 22.6016 11.8757C22.6027 9.05354 21.4961 6.39971 19.4854 4.40312C17.4751 2.4067 14.8015 1.30665 11.9529 1.30536C6.08357 1.30536 1.30673 6.04353 1.30431 11.8674" fill="url(#paint0_linear_2003_68)"/>
<path d="M2.72588 17.1482L3.68983 17.4143L3.80174 17.0088L3.59023 16.6453L2.72588 17.1482ZM1.21509 22.6216L0.251136 22.3555L-0.209852 24.0256L1.46688 23.5894L1.21509 22.6216ZM6.86017 21.1529L7.33542 20.273L6.9892 20.086L6.60838 20.1851L6.86017 21.1529ZM11.9486 22.4383L11.9486 23.4383H11.9486V22.4383ZM22.6016 11.8757L23.6016 11.8762V11.8761L22.6016 11.8757ZM19.4854 4.40312L18.7808 5.11267L18.7808 5.1127L19.4854 4.40312ZM11.9529 1.30536L11.9533 0.305359H11.9529V1.30536ZM1.30422 11.8674L0.304223 11.8671C0.303654 13.9049 0.84045 15.8961 1.86152 17.6511L2.72588 17.1482L3.59023 16.6453C2.74726 15.1964 2.30375 13.5526 2.30422 11.8677L1.30422 11.8674ZM2.72588 17.1482L1.76192 16.8821L0.251136 22.3555L1.21509 22.6216L2.17904 22.8876L3.68983 17.4143L2.72588 17.1482ZM1.21509 22.6216L1.46688 23.5894L7.11195 22.1207L6.86017 21.1529L6.60838 20.1851L0.9633 21.6538L1.21509 22.6216ZM6.86017 21.1529L6.38491 22.0327C8.09251 22.9551 10.0052 23.4382 11.9486 23.4383L11.9486 22.4383L11.9487 21.4383C10.3366 21.4382 8.75054 21.0374 7.33542 20.273L6.86017 21.1529ZM11.9486 22.4383V23.4383H11.9533V22.4383V21.4383H11.9486V22.4383ZM11.9533 22.4383V23.4383C18.3668 23.4383 23.5988 18.2597 23.6016 11.8762L22.6016 11.8757L21.6016 11.8753C21.5993 17.1401 17.277 21.4383 11.9533 21.4383V22.4383ZM22.6016 11.8757L23.6016 11.8761C23.6028 8.78617 22.389 5.87712 20.1901 3.69354L19.4854 4.40312L18.7808 5.1127C20.6031 6.92231 21.6026 9.32091 21.6016 11.8754L22.6016 11.8757ZM19.4854 4.40312L20.1901 3.69357C17.9916 1.51022 15.0644 0.306766 11.9533 0.305359L11.9529 1.30536L11.9524 2.30536C14.5386 2.30653 16.9587 3.30318 18.7808 5.11267L19.4854 4.40312ZM11.9529 1.30536V0.305359C5.53875 0.305359 0.306965 5.48372 0.304309 11.867L1.30431 11.8674L2.30431 11.8678C2.3065 6.60335 6.62839 2.30536 11.9529 2.30536V1.30536Z" fill="#DADADA" mask="url(#path-1-outside-1_2003_68)"/>
<path d="M0.924139 11.864C0.923533 13.7923 1.43125 15.6748 2.3965 17.3341L0.831543 23.0037L6.67903 21.4824C8.29021 22.354 10.1042 22.8136 11.9501 22.8142H11.9549C18.034 22.8142 22.9828 17.9054 22.9854 11.8727C22.9864 8.94911 21.84 6.19989 19.7575 4.13177C17.6748 2.0639 14.9056 0.924267 11.9549 0.923065C5.87466 0.923065 0.926562 5.83126 0.924139 11.864ZM4.40653 17.0483L4.1882 16.7044C3.27037 15.2563 2.78593 13.583 2.78662 11.8647C2.78852 6.85042 6.90118 2.77094 11.9583 2.77094C14.4074 2.77197 16.7089 3.71926 18.44 5.43799C20.1711 7.15688 21.1236 9.44182 21.123 11.872C21.1207 16.8863 17.008 20.9663 11.9549 20.9663H11.9512C10.3059 20.9654 8.69218 20.527 7.28489 19.6985L6.94999 19.5014L3.47997 20.4041L4.40653 17.0483Z" fill="url(#paint1_linear_2003_68)"/>
<path d="M9.19783 7.28999C8.99135 6.83463 8.77406 6.82544 8.5777 6.81746C8.41691 6.81059 8.2331 6.8111 8.04947 6.8111C7.86566 6.8111 7.56702 6.87971 7.31458 7.1532C7.06189 7.42695 6.34985 8.08847 6.34985 9.43393C6.34985 10.7794 7.33752 12.0798 7.4752 12.2624C7.61306 12.4447 9.3819 15.2941 12.1833 16.3903C14.5116 17.3013 14.9854 17.1201 15.4907 17.0744C15.996 17.0289 17.1214 16.4131 17.351 15.7745C17.5807 15.136 17.5807 14.5887 17.5118 14.4743C17.443 14.3603 17.2592 14.2919 16.9835 14.1552C16.7079 14.0185 15.3528 13.3568 15.1002 13.2655C14.8475 13.1743 14.6638 13.1288 14.48 13.4026C14.2962 13.676 13.7684 14.2919 13.6075 14.4743C13.4468 14.6571 13.2859 14.6798 13.0104 14.5431C12.7346 14.4058 11.847 14.1174 10.7939 13.1858C9.97452 12.4609 9.42136 11.5658 9.26057 11.2919C9.09979 11.0185 9.24335 10.8703 9.38156 10.7341C9.50539 10.6115 9.65727 10.4147 9.79521 10.2551C9.93263 10.0954 9.9785 9.98142 10.0704 9.79904C10.1624 9.61649 10.1164 9.45677 10.0476 9.31999C9.9785 9.1832 9.44291 7.8307 9.19783 7.28999Z" fill="white"/>
</g>
<defs>
<linearGradient id="paint0_linear_2003_68" x1="1070.54" y1="2132.93" x2="1070.54" y2="1.30536" gradientUnits="userSpaceOnUse">
<stop stop-color="#1FAF38"/>
<stop offset="1" stop-color="#60D669"/>
</linearGradient>
<linearGradient id="paint1_linear_2003_68" x1="1108.52" y1="2208.98" x2="1108.52" y2="0.923065" gradientUnits="userSpaceOnUse">
<stop stop-color="#F9F9F9"/>
<stop offset="1" stop-color="white"/>
</linearGradient>
<clipPath id="clip0_2003_68">
<rect width="24" height="24" fill="white"/>
</clipPath>
</defs>
</svg>
