<svg aria-hidden="true" xmlns="http://www.w3.org/2000/svg" xmlns:xlink="http://www.w3.org/1999/xlink"><symbol viewBox="0 0 24 24" fill="none" id="icon-arrow-next" xmlns="http://www.w3.org/2000/svg">
<path d="M9 18L15 12L9 6" stroke="currentColor" stroke-width="2" stroke-linecap="round" stroke-linejoin="round"/>
</symbol><symbol viewBox="0 0 24 24" fill="none" id="icon-arrow-prev" xmlns="http://www.w3.org/2000/svg">
<path d="M15 6L9 12L15 18" stroke="currentColor" stroke-width="2" stroke-linecap="round" stroke-linejoin="round"/>
</symbol><symbol viewBox="0 0 20 20" fill="none" id="icon-attach" xmlns="http://www.w3.org/2000/svg">
<path d="M13.3333 4.99999L6.32167 12.155C6.00904 12.4676 5.83341 12.8916 5.83341 13.3337C5.83341 13.7759 6.00904 14.1999 6.32167 14.5125C6.63429 14.8251 7.0583 15.0008 7.50042 15.0008C7.94254 15.0008 8.36654 14.8251 8.67917 14.5125L15.6908 7.3575C16.316 6.73236 16.6672 5.88449 16.6672 5.00041C16.6672 4.11633 16.316 3.26847 15.6908 2.64333C15.0657 2.01819 14.2178 1.66699 13.3338 1.66699C12.4497 1.66699 11.6018 2.01819 10.9767 2.64333L3.99417 9.76916C3.52367 10.2321 3.14947 10.7835 2.89317 11.3918C2.63686 12 2.50352 12.653 2.50083 13.313C2.49815 13.973 2.62617 14.6271 2.87751 15.2374C3.12885 15.8477 3.49854 16.4022 3.96526 16.8689C4.43198 17.3356 4.98648 17.7053 5.59679 17.9567C6.20709 18.208 6.86112 18.336 7.52115 18.3333C8.18118 18.3306 8.83415 18.1973 9.44239 17.941C10.0506 17.6847 10.6021 17.3105 11.065 16.84L18.0475 9.71416" stroke="currentColor" stroke-width="2" stroke-linecap="round" stroke-linejoin="round"/>
</symbol><symbol viewBox="0 0 24 24" fill="none" id="icon-burger" xmlns="http://www.w3.org/2000/svg">
<path d="M3 17H21M3 12H21M3 7H21" stroke="currentColor" stroke-width="2" stroke-linecap="round" stroke-linejoin="round"/>
</symbol><symbol viewBox="0 0 20 16" fill="none" id="icon-check" xmlns="http://www.w3.org/2000/svg">
<path d="M20.0007 2.59375L7.01838 15.5L0 8.52708L2.11093 6.43333L7.01838 11.3104L17.8898 0.5L20.0007 2.59375Z" fill="currentColor"/>
</symbol><symbol viewBox="0 0 24 24" fill="none" id="icon-close" xmlns="http://www.w3.org/2000/svg">
<path d="M19.9999 19.9999L12 12M12 12L4 4M12 12L20 4M12 12L4 20" stroke="currentColor" stroke-width="2" stroke-linecap="round" stroke-linejoin="round"/>
</symbol><symbol viewBox="0 0 16 16" fill="none" id="icon-location" xmlns="http://www.w3.org/2000/svg">
<path d="M3.33337 6.61523C3.33337 9.84978 6.16302 12.5246 7.4155 13.5501C7.59475 13.6969 7.68545 13.7712 7.81918 13.8088C7.92331 13.8381 8.07657 13.8381 8.1807 13.8088C8.31469 13.7711 8.40475 13.6976 8.58468 13.5502C9.83715 12.5247 12.6667 9.85008 12.6667 6.61553C12.6667 5.39145 12.175 4.21737 11.2998 3.35181C10.4247 2.48626 9.23777 2 8.00009 2C6.76242 2 5.57538 2.48634 4.70021 3.35189C3.82504 4.21744 3.33337 5.39116 3.33337 6.61523Z" stroke="currentColor" stroke-width="1.5" stroke-linecap="round" stroke-linejoin="round"/>
<path d="M6.66671 6C6.66671 6.73638 7.26366 7.33333 8.00004 7.33333C8.73642 7.33333 9.33337 6.73638 9.33337 6C9.33337 5.26362 8.73642 4.66667 8.00004 4.66667C7.26366 4.66667 6.66671 5.26362 6.66671 6Z" stroke="currentColor" stroke-width="1.5" stroke-linecap="round" stroke-linejoin="round"/>
</symbol><symbol viewBox="0 0 16 16" fill="none" id="icon-search" xmlns="http://www.w3.org/2000/svg">
<path d="M10 10L14 14M6.66667 11.3333C4.08934 11.3333 2 9.244 2 6.66667C2 4.08934 4.08934 2 6.66667 2C9.244 2 11.3333 4.08934 11.3333 6.66667C11.3333 9.244 9.244 11.3333 6.66667 11.3333Z" stroke="currentColor" stroke-width="1.5" stroke-linecap="round" stroke-linejoin="round"/>
</symbol><symbol viewBox="0 0 24 24" fill="none" id="icon-tel" xmlns="http://www.w3.org/2000/svg">
<path d="M9.50246 4.25722C9.19873 3.4979 8.46332 3 7.64551 3H4.89474C3.8483 3 3 3.8481 3 4.89453C3 13.7892 10.2108 21 19.1055 21C20.1519 21 21 20.1516 21 19.1052L21.0005 16.354C21.0005 15.5361 20.5027 14.8009 19.7434 14.4971L17.1069 13.4429C16.4249 13.1701 15.6483 13.2929 15.0839 13.7632L14.4035 14.3307C13.6089 14.9929 12.4396 14.9402 11.7082 14.2088L9.79222 12.2911C9.06079 11.5596 9.00673 10.3913 9.66895 9.59668L10.2363 8.9163C10.7066 8.35195 10.8305 7.57516 10.5577 6.89309L9.50246 4.25722Z" stroke="currentColor" stroke-width="2" stroke-linecap="round" stroke-linejoin="round"/>
</symbol><symbol viewBox="0 0 20 16" fill="none" id="icon-tools" xmlns="http://www.w3.org/2000/svg">
<path d="M9.625 4.20801L8.9375 4.80176C8.96875 5.02051 8.96875 5.23926 8.96875 5.45801C8.96875 5.67676 8.96875 5.89551 8.9375 6.11426L9.625 6.73926C9.84375 6.92676 9.9375 7.23926 9.8125 7.52051C9.75 7.67676 9.65625 7.86426 9.5625 8.02051L9.46875 8.17676C9.375 8.33301 9.28125 8.48926 9.1875 8.64551C9 8.86426 8.6875 8.95801 8.40625 8.86426L7.53125 8.55176C7.1875 8.83301 6.8125 9.05176 6.375 9.20801L6.1875 10.1143C6.125 10.4268 5.90625 10.6455 5.625 10.6768C5.40625 10.708 5.1875 10.708 4.96875 10.708C4.78125 10.708 4.5625 10.708 4.34375 10.6768C4.0625 10.6455 3.8125 10.4268 3.78125 10.1143L3.5625 9.20801C3.15625 9.05176 2.78125 8.83301 2.4375 8.55176L1.5625 8.86426C1.28125 8.95801 0.96875 8.86426 0.78125 8.64551C0.6875 8.48926 0.5625 8.33301 0.46875 8.17676L0.375 8.02051C0.3125 7.86426 0.21875 7.67676 0.15625 7.52051C0.03125 7.23926 0.125 6.92676 0.34375 6.73926L1.03125 6.11426C1 5.92676 1 5.70801 1 5.45801C1 5.23926 1 5.02051 1.03125 4.83301L0.34375 4.20801C0.125 3.98926 0.03125 3.70801 0.15625 3.42676C0.21875 3.23926 0.3125 3.08301 0.375 2.92676L0.46875 2.77051C0.59375 2.61426 0.6875 2.45801 0.78125 2.30176C0.96875 2.08301 1.28125 1.98926 1.5625 2.08301L2.4375 2.36426C2.78125 2.11426 3.15625 1.89551 3.59375 1.73926L3.78125 0.801758C3.84375 0.520508 4.0625 0.301758 4.34375 0.270508C4.5625 0.239258 4.78125 0.208008 5 0.208008C5.1875 0.208008 5.40625 0.239258 5.625 0.270508C5.90625 0.301758 6.15625 0.520508 6.21875 0.833008L6.40625 1.73926C6.8125 1.86426 7.1875 2.11426 7.53125 2.36426L8.40625 2.08301C8.6875 1.98926 9 2.08301 9.1875 2.30176C9.28125 2.45801 9.40625 2.61426 9.5 2.77051L9.59375 2.92676C9.65625 3.08301 9.75 3.23926 9.8125 3.42676C9.9375 3.70801 9.84375 3.98926 9.625 4.20801ZM6.5 5.45801C6.5 4.64551 5.8125 3.95801 5 3.95801C4.15625 3.95801 3.5 4.64551 3.5 5.45801C3.5 6.30176 4.15625 6.95801 5 6.95801C5.8125 6.95801 6.5 6.30176 6.5 5.45801ZM15.75 15.6143L15.1562 14.9268C14.9375 14.958 14.7188 14.958 14.5 14.958C14.2812 14.958 14.0625 14.958 13.8438 14.9268L13.2188 15.6143C13.0312 15.833 12.7188 15.9268 12.4375 15.8018C12.2812 15.7393 12.0938 15.6455 11.9375 15.5518L11.7812 15.458C11.625 15.3643 11.4688 15.2705 11.3125 15.1455C11.0938 14.9893 11 14.6768 11.0938 14.3955L11.4062 13.5205C11.125 13.1768 10.9062 12.8018 10.75 12.3643L9.84375 12.1768C9.53125 12.1143 9.3125 11.8955 9.28125 11.6143C9.25 11.3955 9.25 11.1768 9.25 10.958C9.25 10.7393 9.25 10.5518 9.28125 10.333C9.3125 10.0518 9.53125 9.80176 9.84375 9.73926L10.75 9.55176C10.9062 9.14551 11.125 8.77051 11.4062 8.42676L11.0938 7.55176C11 7.27051 11.0938 6.95801 11.3125 6.77051C11.4688 6.67676 11.625 6.55176 11.7812 6.45801L11.9375 6.36426C12.0938 6.30176 12.2812 6.20801 12.4375 6.14551C12.7188 6.02051 13.0312 6.11426 13.2188 6.33301L13.8438 7.02051C14.0312 6.98926 14.25 6.98926 14.5 6.98926C14.7188 6.98926 14.9375 6.98926 15.125 7.02051L15.75 6.33301C15.9688 6.11426 16.2812 6.02051 16.5312 6.14551C16.7188 6.20801 16.875 6.30176 17.0312 6.36426L17.1875 6.45801C17.3438 6.58301 17.5 6.67676 17.6562 6.77051C17.875 6.95801 17.9688 7.27051 17.875 7.55176L17.5938 8.42676C17.8438 8.77051 18.0625 9.14551 18.2188 9.55176L19.1562 9.77051C19.4375 9.83301 19.6562 10.0518 19.6875 10.333C19.7188 10.5518 19.75 10.7705 19.75 10.9893C19.75 11.1768 19.7188 11.3955 19.6875 11.6143C19.6562 11.8955 19.4375 12.1455 19.1562 12.1768L18.2188 12.3955C18.0938 12.8018 17.8438 13.1768 17.5938 13.5205L17.875 14.3955C17.9688 14.6768 17.875 14.9893 17.6562 15.1768C17.5 15.2705 17.3438 15.3643 17.1875 15.458L17.0312 15.583C16.875 15.6455 16.7188 15.7393 16.5312 15.8018C16.25 15.9268 15.9688 15.833 15.75 15.6143ZM14.5 12.458C15.3125 12.458 16 11.8018 16 10.958C16 10.1455 15.3125 9.45801 14.5 9.45801C13.6562 9.45801 13 10.1455 13 10.958C13 11.8018 13.6562 12.458 14.5 12.458Z" fill="currentColor"/>
</symbol></svg>