<svg width="26" height="45" viewBox="0 0 26 45" fill="none" xmlns="http://www.w3.org/2000/svg">
<path fill-rule="evenodd" clip-rule="evenodd" d="M11.3083 26.4017C4.92716 25.5722 0 20.1138 0 13.5054C0 6.32366 5.81937 0.5 13 0.5C20.1806 0.5 26 6.32366 26 13.5054C26 15.2335 25.662 16.8876 25.0468 18.4014C23.6987 21.9768 20.8429 26.8559 18.2575 30.9453C15.6392 35.0867 13.1829 38.5963 12.5474 39.4697C12.048 40.1559 11.2783 40.4965 10.5201 40.4965C8.83647 40.4965 7.62976 38.8765 8.10664 37.265" fill="white"/>
<path d="M13.8749 24.7678C13.9135 24.6384 13.8095 24.5097 13.6746 24.5129C13.4514 24.5181 13.2265 24.5109 13 24.5109C6.92487 24.5109 2 19.5836 2 13.5054C2 7.4273 6.92487 2.5 13 2.5C19.0751 2.5 24 7.4273 24 13.5054C24 14.9798 23.7102 16.3865 23.1845 17.6716C20.6578 24.3985 12.1494 36.6173 10.9302 38.293C10.8334 38.4259 10.6845 38.4965 10.5201 38.4965C10.1744 38.4965 9.92608 38.1634 10.0246 37.8318L13.8749 24.7678Z" fill="#ED4543"/>
<path d="M13 21.498C17.4183 21.498 21 17.9163 21 13.498C21 9.07977 17.4183 5.49805 13 5.49805C8.58172 5.49805 5 9.07977 5 13.498C5 17.9163 8.58172 21.498 13 21.498Z" fill="white"/>
<path d="M13 17.5C15.2091 17.5 17 15.7091 17 13.5C17 11.2909 15.2091 9.5 13 9.5C10.7909 9.5 9 11.2909 9 13.5C9 15.7091 10.7909 17.5 13 17.5Z" fill="#ED4543"/>
</svg>
