<svg width="80" height="80" viewBox="0 0 80 80" fill="none" xmlns="http://www.w3.org/2000/svg">
<path d="M31.84 14.8799H48.16L48.8 15.5199V21.9199L48.16 22.5599H43.84V24.9599H55.68L56.48 25.7599L57.12 26.7199V27.0399H57.44L59.68 30.3999L60.32 31.6799L60.8 32.3199L64.48 32.4799L65.12 33.1199V41.1199H67.36V36.7999L68 36.1599H74.4L75.04 36.7999V55.6799L74.4 56.3199H68L67.36 55.6799V51.3599H65.12V59.5199L59.68 64.9599L59.36 65.1199H30.56L28.96 63.6799L27.04 61.7599L25.92 60.4799L25.6 60.1599L15.52 59.9999L14.88 59.3599V50.0799H12.64V54.3999L12 55.0399H5.59996L4.95996 54.3999V38.0799L5.59996 37.4399H12L12.64 38.0799V42.3999H14.88V33.1199L15.52 32.4799L21.6 32.3199L25.12 27.0399H25.44L25.76 26.2399L26.56 25.1199L26.88 24.9599H36.16V22.5599H31.84L31.2 21.9199V15.5199L31.84 14.8799Z" fill="#BA0105"/>
</svg>
