<svg aria-hidden="true" xmlns="http://www.w3.org/2000/svg" xmlns:xlink="http://www.w3.org/1999/xlink"><symbol viewBox="0 0 24 24" fill="none" id="icon-arrow-next" xmlns="http://www.w3.org/2000/svg">
<path d="M9 18L15 12L9 6" stroke="currentColor" stroke-width="2" stroke-linecap="round" stroke-linejoin="round"/>
</symbol><symbol viewBox="0 0 24 24" fill="none" id="icon-arrow-prev" xmlns="http://www.w3.org/2000/svg">
<path d="M15 6L9 12L15 18" stroke="currentColor" stroke-width="2" stroke-linecap="round" stroke-linejoin="round"/>
</symbol><symbol viewBox="0 0 20 20" fill="none" id="icon-attach" xmlns="http://www.w3.org/2000/svg">
<path d="M13.3333 4.99999L6.32167 12.155C6.00904 12.4676 5.83341 12.8916 5.83341 13.3337C5.83341 13.7759 6.00904 14.1999 6.32167 14.5125C6.63429 14.8251 7.0583 15.0008 7.50042 15.0008C7.94254 15.0008 8.36654 14.8251 8.67917 14.5125L15.6908 7.3575C16.316 6.73236 16.6672 5.88449 16.6672 5.00041C16.6672 4.11633 16.316 3.26847 15.6908 2.64333C15.0657 2.01819 14.2178 1.66699 13.3338 1.66699C12.4497 1.66699 11.6018 2.01819 10.9767 2.64333L3.99417 9.76916C3.52367 10.2321 3.14947 10.7835 2.89317 11.3918C2.63686 12 2.50352 12.653 2.50083 13.313C2.49815 13.973 2.62617 14.6271 2.87751 15.2374C3.12885 15.8477 3.49854 16.4022 3.96526 16.8689C4.43198 17.3356 4.98648 17.7053 5.59679 17.9567C6.20709 18.208 6.86112 18.336 7.52115 18.3333C8.18118 18.3306 8.83415 18.1973 9.44239 17.941C10.0506 17.6847 10.6021 17.3105 11.065 16.84L18.0475 9.71416" stroke="currentColor" stroke-width="2" stroke-linecap="round" stroke-linejoin="round"/>
</symbol><symbol viewBox="0 0 24 24" fill="none" id="icon-burger" xmlns="http://www.w3.org/2000/svg">
<path d="M3 17H21M3 12H21M3 7H21" stroke="currentColor" stroke-width="2" stroke-linecap="round" stroke-linejoin="round"/>
</symbol><symbol viewBox="0 0 20 16" fill="none" id="icon-check" xmlns="http://www.w3.org/2000/svg">
<path d="M20.0007 2.59375L7.01838 15.5L0 8.52708L2.11093 6.43333L7.01838 11.3104L17.8898 0.5L20.0007 2.59375Z" fill="currentColor"/>
</symbol><symbol viewBox="0 0 24 24" fill="none" id="icon-close" xmlns="http://www.w3.org/2000/svg">
<path d="M19.9999 19.9999L12 12M12 12L4 4M12 12L20 4M12 12L4 20" stroke="currentColor" stroke-width="2" stroke-linecap="round" stroke-linejoin="round"/>
</symbol><symbol viewBox="0 0 16 16" fill="none" id="icon-location" xmlns="http://www.w3.org/2000/svg">
<path d="M3.33337 6.61523C3.33337 9.84978 6.16302 12.5246 7.4155 13.5501C7.59475 13.6969 7.68545 13.7712 7.81918 13.8088C7.92331 13.8381 8.07657 13.8381 8.1807 13.8088C8.31469 13.7711 8.40475 13.6976 8.58468 13.5502C9.83715 12.5247 12.6667 9.85008 12.6667 6.61553C12.6667 5.39145 12.175 4.21737 11.2998 3.35181C10.4247 2.48626 9.23777 2 8.00009 2C6.76242 2 5.57538 2.48634 4.70021 3.35189C3.82504 4.21744 3.33337 5.39116 3.33337 6.61523Z" stroke="currentColor" stroke-width="1.5" stroke-linecap="round" stroke-linejoin="round"/>
<path d="M6.66671 6C6.66671 6.73638 7.26366 7.33333 8.00004 7.33333C8.73642 7.33333 9.33337 6.73638 9.33337 6C9.33337 5.26362 8.73642 4.66667 8.00004 4.66667C7.26366 4.66667 6.66671 5.26362 6.66671 6Z" stroke="currentColor" stroke-width="1.5" stroke-linecap="round" stroke-linejoin="round"/>
</symbol><symbol viewBox="0 0 16 16" fill="none" id="icon-search" xmlns="http://www.w3.org/2000/svg">
<path d="M10 10L14 14M6.66667 11.3333C4.08934 11.3333 2 9.244 2 6.66667C2 4.08934 4.08934 2 6.66667 2C9.244 2 11.3333 4.08934 11.3333 6.66667C11.3333 9.244 9.244 11.3333 6.66667 11.3333Z" stroke="currentColor" stroke-width="1.5" stroke-linecap="round" stroke-linejoin="round"/>
</symbol><symbol viewBox="0 0 24 24" fill="none" id="icon-tel" xmlns="http://www.w3.org/2000/svg">
<path d="M9.50246 4.25722C9.19873 3.4979 8.46332 3 7.64551 3H4.89474C3.8483 3 3 3.8481 3 4.89453C3 13.7892 10.2108 21 19.1055 21C20.1519 21 21 20.1516 21 19.1052L21.0005 16.354C21.0005 15.5361 20.5027 14.8009 19.7434 14.4971L17.1069 13.4429C16.4249 13.1701 15.6483 13.2929 15.0839 13.7632L14.4035 14.3307C13.6089 14.9929 12.4396 14.9402 11.7082 14.2088L9.79222 12.2911C9.06079 11.5596 9.00673 10.3913 9.66895 9.59668L10.2363 8.9163C10.7066 8.35195 10.8305 7.57516 10.5577 6.89309L9.50246 4.25722Z" stroke="currentColor" stroke-width="2" stroke-linecap="round" stroke-linejoin="round"/>
</symbol></svg>